<svg xmlns="http://www.w3.org/2000/svg" xmlns:xlink="http://www.w3.org/1999/xlink" width="500" zoomAndPan="magnify" viewBox="0 0 375 112.499997" height="150" preserveAspectRatio="xMidYMid meet" version="1.0"><defs><g/><clipPath id="127c1c426a"><path d="M 11 0 L 370 0 L 370 112.003906 L 11 112.003906 Z M 11 0 " clip-rule="nonzero"/></clipPath><clipPath id="60dfb6bb89"><rect x="0" width="359" y="0" height="113"/></clipPath></defs><g clip-path="url(#127c1c426a)"><g transform="matrix(1, 0, 0, 1, 11, 0)"><g clip-path="url(#60dfb6bb89)"><g fill="#324467" fill-opacity="1"><g transform="translate(1.029872, 84.783602)"><g><path d="M 75.046875 -63.109375 L 75.046875 0 L 62.390625 0 L 62.390625 -41.046875 L 45.484375 0 L 35.890625 0 L 18.890625 -41.046875 L 18.890625 0 L 6.234375 0 L 6.234375 -63.109375 L 20.609375 -63.109375 L 40.6875 -16.1875 L 60.765625 -63.109375 Z M 75.046875 -63.109375 "/></g></g></g><g fill="#324467" fill-opacity="1"><g transform="translate(82.323128, 84.783602)"><g><path d="M 54.15625 -50.09375 L 23.140625 23.6875 L 9.671875 23.6875 L 20.53125 -1.265625 L 0.453125 -50.09375 L 14.640625 -50.09375 L 27.578125 -15.09375 L 40.6875 -50.09375 Z M 54.15625 -50.09375 "/></g></g></g><g fill="#324467" fill-opacity="1"><g transform="translate(137.031057, 84.783602)"><g><path d="M 28.03125 0.640625 C 23.632812 0.640625 19.671875 -0.113281 16.140625 -1.625 C 12.609375 -3.132812 9.816406 -5.304688 7.765625 -8.140625 C 5.722656 -10.972656 4.671875 -14.316406 4.609375 -18.171875 L 18.171875 -18.171875 C 18.359375 -15.578125 19.28125 -13.523438 20.9375 -12.015625 C 22.59375 -10.515625 24.867188 -9.765625 27.765625 -9.765625 C 30.710938 -9.765625 33.03125 -10.472656 34.71875 -11.890625 C 36.40625 -13.304688 37.25 -15.160156 37.25 -17.453125 C 37.25 -19.316406 36.675781 -20.851562 35.53125 -22.0625 C 34.382812 -23.269531 32.953125 -24.21875 31.234375 -24.90625 C 29.515625 -25.601562 27.148438 -26.375 24.140625 -27.21875 C 20.046875 -28.425781 16.71875 -29.613281 14.15625 -30.78125 C 11.59375 -31.957031 9.390625 -33.734375 7.546875 -36.109375 C 5.710938 -38.492188 4.796875 -41.675781 4.796875 -45.65625 C 4.796875 -49.394531 5.726562 -52.648438 7.59375 -55.421875 C 9.46875 -58.203125 12.09375 -60.328125 15.46875 -61.796875 C 18.84375 -63.273438 22.695312 -64.015625 27.03125 -64.015625 C 33.539062 -64.015625 38.832031 -62.429688 42.90625 -59.265625 C 46.976562 -56.109375 49.222656 -51.695312 49.640625 -46.03125 L 35.71875 -46.03125 C 35.59375 -48.195312 34.671875 -49.988281 32.953125 -51.40625 C 31.234375 -52.820312 28.957031 -53.53125 26.125 -53.53125 C 23.65625 -53.53125 21.679688 -52.894531 20.203125 -51.625 C 18.734375 -50.363281 18 -48.523438 18 -46.109375 C 18 -44.421875 18.554688 -43.019531 19.671875 -41.90625 C 20.785156 -40.789062 22.171875 -39.882812 23.828125 -39.1875 C 25.484375 -38.5 27.816406 -37.703125 30.828125 -36.796875 C 34.929688 -35.597656 38.28125 -34.394531 40.875 -33.1875 C 43.46875 -31.976562 45.695312 -30.164062 47.5625 -27.75 C 49.425781 -25.34375 50.359375 -22.179688 50.359375 -18.265625 C 50.359375 -14.890625 49.484375 -11.753906 47.734375 -8.859375 C 45.992188 -5.960938 43.4375 -3.65625 40.0625 -1.9375 C 36.6875 -0.21875 32.675781 0.640625 28.03125 0.640625 Z M 28.03125 0.640625 "/></g></g></g><g fill="#324467" fill-opacity="1"><g transform="translate(192.100684, 84.783602)"><g><path d="M 12.65625 -56.0625 C 10.425781 -56.0625 8.570312 -56.769531 7.09375 -58.1875 C 5.613281 -59.601562 4.875 -61.363281 4.875 -63.46875 C 4.875 -65.582031 5.613281 -67.347656 7.09375 -68.765625 C 8.570312 -70.179688 10.425781 -70.890625 12.65625 -70.890625 C 14.882812 -70.890625 16.738281 -70.179688 18.21875 -68.765625 C 19.695312 -67.347656 20.4375 -65.582031 20.4375 -63.46875 C 20.4375 -61.363281 19.695312 -59.601562 18.21875 -58.1875 C 16.738281 -56.769531 14.882812 -56.0625 12.65625 -56.0625 Z M 18.890625 -50.09375 L 18.890625 0 L 6.234375 0 L 6.234375 -50.09375 Z M 18.890625 -50.09375 "/></g></g></g><g fill="#324467" fill-opacity="1"><g transform="translate(217.239184, 84.783602)"><g><path d="M 18.890625 -66.90625 L 18.890625 0 L 6.234375 0 L 6.234375 -66.90625 Z M 18.890625 -66.90625 "/></g></g></g><g fill="#324467" fill-opacity="1"><g transform="translate(242.377708, 84.783602)"><g><path d="M 27.125 -11.671875 L 39.78125 -50.09375 L 53.265625 -50.09375 L 34.71875 0 L 19.34375 0 L 0.90625 -50.09375 L 14.46875 -50.09375 Z M 27.125 -11.671875 "/></g></g></g><g fill="#324467" fill-opacity="1"><g transform="translate(296.543078, 84.783602)"><g><path d="M 2.984375 -25.234375 C 2.984375 -30.296875 3.992188 -34.785156 6.015625 -38.703125 C 8.035156 -42.617188 10.773438 -45.628906 14.234375 -47.734375 C 17.703125 -49.847656 21.578125 -50.90625 25.859375 -50.90625 C 29.597656 -50.90625 32.867188 -50.148438 35.671875 -48.640625 C 38.472656 -47.140625 40.71875 -45.242188 42.40625 -42.953125 L 42.40625 -50.09375 L 55.15625 -50.09375 L 55.15625 0 L 42.40625 0 L 42.40625 -7.328125 C 40.78125 -4.972656 38.535156 -3.023438 35.671875 -1.484375 C 32.804688 0.046875 29.503906 0.8125 25.765625 0.8125 C 21.546875 0.8125 17.703125 -0.269531 14.234375 -2.4375 C 10.773438 -4.613281 8.035156 -7.675781 6.015625 -11.625 C 3.992188 -15.570312 2.984375 -20.109375 2.984375 -25.234375 Z M 42.40625 -25.046875 C 42.40625 -28.117188 41.800781 -30.753906 40.59375 -32.953125 C 39.394531 -35.160156 37.769531 -36.847656 35.71875 -38.015625 C 33.664062 -39.191406 31.460938 -39.78125 29.109375 -39.78125 C 26.765625 -39.78125 24.597656 -39.207031 22.609375 -38.0625 C 20.617188 -36.914062 19.003906 -35.242188 17.765625 -33.046875 C 16.535156 -30.847656 15.921875 -28.242188 15.921875 -25.234375 C 15.921875 -22.210938 16.535156 -19.570312 17.765625 -17.3125 C 19.003906 -15.050781 20.632812 -13.316406 22.65625 -12.109375 C 24.675781 -10.910156 26.828125 -10.3125 29.109375 -10.3125 C 31.460938 -10.3125 33.664062 -10.894531 35.71875 -12.0625 C 37.769531 -13.238281 39.394531 -14.925781 40.59375 -17.125 C 41.800781 -19.332031 42.40625 -21.972656 42.40625 -25.046875 Z M 42.40625 -25.046875 "/></g></g></g></g></g></g></svg>